<?xml version="1.0" encoding="UTF-8" standalone="no"?>
<!-- Generator: Adobe Illustrator 18.1.1, SVG Export Plug-In . SVG Version: 6.00 Build 0)  -->

<svg
   xmlns:dc="http://purl.org/dc/elements/1.1/"
   xmlns:cc="http://creativecommons.org/ns#"
   xmlns:rdf="http://www.w3.org/1999/02/22-rdf-syntax-ns#"
   xmlns:svg="http://www.w3.org/2000/svg"
   xmlns="http://www.w3.org/2000/svg"
   xmlns:sodipodi="http://sodipodi.sourceforge.net/DTD/sodipodi-0.dtd"
   xmlns:inkscape="http://www.inkscape.org/namespaces/inkscape"
   version="1.1"
   id="Layer_1"
   x="0px"
   y="0px"
   width="350"
   height="47"
   viewBox="0 0 350 47"
   enable-background="new 0 0 350 47"
   xml:space="preserve"
   inkscape:version="0.91 r13725"
   sodipodi:docname="billionaires_white.svg"><metadata
     id="metadata4144"><rdf:RDF><cc:Work
         rdf:about=""><dc:format>image/svg+xml</dc:format><dc:type
           rdf:resource="http://purl.org/dc/dcmitype/StillImage" /><dc:title></dc:title></cc:Work></rdf:RDF></metadata><defs
     id="defs4142" /><sodipodi:namedview
     pagecolor="#ffffff"
     bordercolor="#666666"
     borderopacity="1"
     objecttolerance="10"
     gridtolerance="10"
     guidetolerance="10"
     inkscape:pageopacity="0"
     inkscape:pageshadow="2"
     inkscape:window-width="1920"
     inkscape:window-height="1017"
     id="namedview4140"
     showgrid="false"
     inkscape:zoom="4.2"
     inkscape:cx="175"
     inkscape:cy="23.5"
     inkscape:window-x="-8"
     inkscape:window-y="-8"
     inkscape:window-maximized="1"
     inkscape:current-layer="g4137" /><g
     id="g4137"><path
       id="billionaires"
       d="M9.9,3.3c-2.3,1.8-4.2,4.9-5.6,9.5c-1.2,3.8-1.7,7.5-1.7,11.1c0,6.1,1.3,11.2,3.8,15.6c1,1.8,2.3,3.1,3.6,3.9   c1,0.5,1.4,1.2,1.4,2.1c0,0.3-0.2,0.6-0.4,0.8c-0.3,0.2-0.6,0.3-0.8,0.3c-0.7,0-1.3-0.3-2.1-0.9c-2.6-2.1-4.6-5.5-6.1-10.1   C0.6,31.6,0,27.6,0,23.6c0-3.5,0.5-7.1,1.6-10.7c1.1-3.9,2.7-7.2,4.7-9.7c0.1-0.3,0.3-0.7,0.5-1c0.3-0.3,0.6-0.7,1-1   C8.7,0.4,9.5,0,10.2,0c0.9,0,1.4,0.4,1.4,1.3C11.6,1.8,11,2.5,9.9,3.3z M29.9,31.6c-0.2,1.5-0.3,3.5-0.6,5.8   c-0.1,0.4-0.3,0.7-0.6,0.7c-0.5,0-0.9-0.2-1.3-0.6c-0.3-0.4-0.5-0.9-0.5-1.3c0-0.6,0.1-1.6,0.3-2.8l0.7-7.3c-4.1,3-7,6-8.6,9.1   c-0.3,0.6-0.5,1.2-0.7,1.7c-0.3,0.6-0.5,1-0.7,1c-0.9,0-1.4-0.5-1.8-1.6c-0.5-1.6-0.8-3.6-0.8-6.1c0-2.6,0.4-6.2,1.4-10.7   c0.1-0.4,0.3-0.7,0.6-0.7c0.5,0,0.9,0.3,1.3,0.7c0.3,0.5,0.5,1,0.5,1.5c-0.1,0.4-0.2,0.9-0.3,1.5c-0.7,3-1,6.3-1,9.8   c3.4-4.5,6.9-7.8,10.5-9.9c0.5,0,1,0.3,1.3,0.6c0.4,0.4,0.6,0.9,0.6,1.3C30.3,26.3,30.1,28.8,29.9,31.6z M47.3,31.8   c-0.1,0.3-0.3,0.9-0.6,1.6c-0.4,1.2-1.2,2.2-2.4,3.2S41.9,38,40.8,38c-1.8,0-3.3-0.8-4.4-2.4c-1.1-1.4-1.6-3.1-1.6-5.1   c0-1.8,0.4-3.6,1.3-5.3c0.9-1.9,2.1-3.2,3.6-3.9c0.8-0.4,1.3-0.8,1.7-1.2c0.2,0,0.4-0.1,0.6-0.1c0.1,0,0.4,0.1,1,0.3   c1.5,0.6,2.7,1.5,3.6,2.9c0.9,1.4,1.4,2.9,1.4,4.5C47.9,29.3,47.7,30.7,47.3,31.8z M43.7,24c-0.7,0-1.3-0.2-1.7-0.4   c-1.5,0.1-2.7,0.9-3.6,2.3c-0.7,1.3-1.1,2.8-1.1,4.5c0,1.3,0.3,2.4,1,3.3c0.7,1,1.5,1.4,2.5,1.4c1.1,0,2.2-0.8,3.2-2.5   c1-1.5,1.4-3,1.4-4.4C45.4,26.2,44.8,24.8,43.7,24z M65.4,23.6h-0.6c-0.4-0.1-0.7-0.3-1-0.6c-0.4,0-1.3,0-2.7,0c-1.4,0-2.3,0-2.6,0   c-1,4.4-1.5,6.7-1.5,6.9c-0.5,2.6-0.8,5-0.8,7c0.4,0.3,0.6,0.7,0.6,1.3c0,0.3-0.2,0.7-0.5,0.9c-0.3,0.3-0.7,0.4-1,0.4   c-1.1,0-1.6-1.1-1.6-3.2c0-1.3,0.3-3.4,0.8-6.3l1.4-7c-1.4,0-2.1-0.5-2.1-1.5c0-0.9,0.9-1.4,2.7-1.4c0.6-2.6,1.6-6.3,3-11.4   c0.2-0.7,0.6-1.1,1.1-1.1c1,0,1.4,0.5,1.4,1.5c0,0.2-0.1,0.5-0.3,0.9c-0.3,0.6-0.6,1.7-0.9,3.2c-0.7,2.7-1.3,4.9-1.6,6.8   c0.1,0,0.7,0,1.8,0c1,0,1.7,0,2,0c2.2,0,3.3,0.7,3.3,1.9C66.3,22.4,66,23,65.4,23.6z M96.4,23.6h-0.6c-0.4-0.1-0.7-0.3-1-0.6   c-0.4,0-1.3,0-2.7,0c-1.4,0-2.3,0-2.6,0c-1,4.4-1.5,6.7-1.5,6.9c-0.5,2.6-0.8,5-0.8,7c0.4,0.3,0.6,0.7,0.6,1.3   c0,0.3-0.2,0.7-0.5,0.9c-0.3,0.3-0.7,0.4-1,0.4c-1.1,0-1.6-1.1-1.6-3.2c0-1.3,0.3-3.4,0.8-6.3l1.4-7c-1.4,0-2.1-0.5-2.1-1.5   c0-0.9,0.9-1.4,2.7-1.4c0.6-2.6,1.6-6.3,3-11.4c0.2-0.7,0.6-1.1,1.1-1.1c1,0,1.4,0.5,1.4,1.5c0,0.2-0.1,0.5-0.3,0.9   c-0.3,0.6-0.6,1.7-0.9,3.2c-0.7,2.7-1.3,4.9-1.6,6.8c0.1,0,0.7,0,1.8,0c1,0,1.7,0,2,0c2.2,0,3.3,0.7,3.3,1.9   C97.4,22.4,97,23,96.4,23.6z M114.3,38.8c-1.4,0-2.2-1.6-2.3-4.6l-0.3-7.7c-4.1,2.8-6.9,5.5-8.2,8.1c-0.3,0.7-0.7,1.3-0.9,2   c-0.5,1-0.8,1.6-1,1.6c-0.5,0-1-0.2-1.3-0.7s-0.6-0.9-0.6-1.3c0-0.1,0-0.3,0.1-0.8c0-0.4,0-0.7,0-0.8s0-0.5,0-1.1   c0-0.5,0-0.9,0-1.1c0-3,0.3-6.5,1-10.6c0-0.3,0.6-3.6,1.7-9.9l0.8-4.9c0.2-1,0.3-1.5,0.4-1.7c0.1-0.3,0.3-0.6,0.7-0.6   c0.4,0,0.9,0.3,1.2,0.7c0.3,0.5,0.5,1,0.5,1.6c0,0.1-0.2,1.3-0.6,3.4c-1.7,8.7-2.8,15.6-3.3,20.7c1.4-1.7,3.2-3.5,5.5-5.3   c2.6-2.1,4.3-3.1,5.2-3.1c0.5,0,1,0.3,1.3,0.7c0.3,0.5,0.5,1,0.5,1.6c0,0.3,0,0.9-0.1,1.8c-0.1,1-0.1,1.7-0.1,2.2   c0,1.3,0.1,3.3,0.3,6c0.1,0.7,0.2,1.6,0.3,2.8C114.9,38.5,114.7,38.8,114.3,38.8z M131.9,38.5c-3.4,0-5.8-1.6-7.3-4.8   c-0.3,0.1-0.8,0.1-1.2,0.1c-1.5,0-2.7-0.3-3.6-0.8c-1.1-0.6-1.6-1.3-1.6-2c0-1,0.4-1.4,1.3-1.4c0.1,0,0.6,0.3,1.3,0.8   c0.7,0.5,1.5,0.7,2.2,0.7c0.3,0,0.6,0,0.8,0c-0.1-0.7-0.2-1.3-0.2-2c0-2.1,0.5-4.1,1.6-6.1c1.2-2.2,2.6-3.3,4.4-3.3   c1.1,0,2.2,0.6,3.3,1.7c0.8,0.9,1.2,1.9,1.2,3c0,1.7-0.7,3.4-2.2,5c-1.3,1.5-2.9,2.7-4.8,3.5c0.9,1.8,2.2,2.7,4.1,2.7   c0.4,0,1,0,1.8-0.2c0.8-0.1,1.3-0.1,1.5-0.1c0.3,0,0.6,0.2,0.9,0.5c0.3,0.3,0.4,0.7,0.4,1C135.8,37.9,134.5,38.5,131.9,38.5z    M130.9,23.2c-0.5-0.4-1-0.6-1.4-0.6c-0.9,0-1.6,0.7-2.2,2c-0.6,1.3-0.9,2.7-0.9,4.1c0,0.5,0,1.1,0.1,1.7c1.4-0.6,2.6-1.4,3.6-2.5   c1-1,1.5-2.1,1.5-3.3C131.6,24.1,131.3,23.6,130.9,23.2z M168.7,32.4c-1.4,1.7-3.1,3.1-5.3,4.3c-1.2,0.7-2.5,1.2-3.9,1.6   c-1.5,0.4-2.5,0.7-3.2,0.7c-1.1,0-1.7-0.5-2-1.4c0.1-0.5,0.5-1,1.2-1.4c-0.2-1.9-0.3-3.9-0.3-6c0-7.4,0.7-14.8,2.2-22   c0.4-2.2,1.1-3.3,1.9-3.3c1,0,1.4,0.7,1.4,1.9c0,0.5-0.1,1.4-0.3,2.5c-0.2,1.3-0.4,2.2-0.6,2.6c-0.2,0.5-0.5,0.9-0.9,1   c-0.6,3.6-1,8.7-1.3,15.4c3.4-4.2,6.3-6.3,8.7-6.3c1.4,0,2.5,0.5,3.3,1.4s1.2,2.2,1.2,3.6C170.9,28.8,170.1,30.6,168.7,32.4z    M166.2,24.9c-0.8,0-1.8,0.5-3,1.5c-2,1.6-3.5,3.4-4.6,5.6c-0.3,0.7-0.5,1.3-0.5,1.9c0,0.6,0,1.3,0.1,2.2c2.3-0.5,4.4-1.6,6.6-3.3   c2.4-1.9,3.7-3.7,3.7-5.6C168.4,25.7,167.7,24.9,166.2,24.9z M179.8,25.9c-1,4.1-1.5,7.2-1.5,9.5c0.6,0.6,0.9,1.3,0.9,2   c0,0.6-0.3,0.9-0.8,0.9c-0.7,0-1.3-0.6-1.9-1.6c-0.4-0.9-0.7-2-0.7-3.3c0-1.1,0.6-4.6,1.8-10.6c-0.1-0.5-0.1-0.9-0.1-1   c0-0.4,0.2-0.7,0.7-1c1.6,0.1,2.4,0.9,2.4,2.3C180.3,23.8,180.1,24.7,179.8,25.9z M181.5,9.2c-1.7-0.3-2.5-1.2-2.5-2.7   c0-0.3,0-0.5,0-0.8c0.1-1,0.7-1.6,1.8-2c1.4,0.2,2.2,1.1,2.2,3C182.9,8.2,182.4,9.1,181.5,9.2z M192.8,9.2l-0.3,0.3   c-0.5,1.9-0.9,4.3-1.3,7.3c-0.4,3.2-0.6,5.9-0.6,8.2c0,5.3,0.2,9.8,0.6,13.2c0,0.4-0.2,0.7-0.7,0.7c-0.6,0-1.2-0.5-1.8-1.5   c-0.6-0.9-0.9-1.7-0.9-2.3c0-0.2,0-0.7,0-1.5c0-0.8,0-1.3,0-1.5c0-0.7,0.1-1.2,0.4-1.6c-0.2-1.7-0.2-4-0.2-6.9   c0-5.5,0.9-11.5,2.8-17.8c0.2-0.6,0.4-0.9,0.7-0.9c0.4,0,1,0.3,1.6,0.9c0.7,0.6,1,1.2,1,1.7C194.2,8.2,193.7,8.8,192.8,9.2z    M203.6,9.2l-0.3,0.3c-0.5,1.9-0.9,4.3-1.3,7.3c-0.4,3.2-0.6,5.9-0.6,8.2c0,5.3,0.2,9.8,0.6,13.2c0,0.4-0.2,0.7-0.7,0.7   c-0.6,0-1.2-0.5-1.8-1.5c-0.6-0.9-0.9-1.7-0.9-2.3c0-0.2,0-0.7,0-1.5c0-0.8,0-1.3,0-1.5c0-0.7,0.1-1.2,0.4-1.6   c-0.2-1.7-0.2-4-0.2-6.9c0-5.5,0.9-11.5,2.8-17.8c0.2-0.6,0.4-0.9,0.7-0.9c0.4,0,1,0.3,1.6,0.9c0.7,0.6,1,1.2,1,1.7   C205,8.2,204.6,8.8,203.6,9.2z M213,25.9c-1,4.1-1.5,7.2-1.5,9.5c0.6,0.6,0.9,1.3,0.9,2c0,0.6-0.3,0.9-0.8,0.9   c-0.7,0-1.3-0.6-1.9-1.6c-0.4-0.9-0.7-2-0.7-3.3c0-1.1,0.6-4.6,1.8-10.6c-0.1-0.5-0.1-0.9-0.1-1c0-0.4,0.2-0.7,0.7-1   c1.6,0.1,2.4,0.9,2.4,2.3C213.6,23.8,213.3,24.7,213,25.9z M214.7,9.2c-1.7-0.3-2.5-1.2-2.5-2.7c0-0.3,0-0.5,0-0.8   c0.1-1,0.7-1.6,1.8-2c1.4,0.2,2.2,1.1,2.2,3C216.1,8.2,215.7,9.1,214.7,9.2z M232.2,31.8c-0.1,0.3-0.3,0.9-0.6,1.6   c-0.4,1.2-1.2,2.2-2.4,3.2s-2.3,1.5-3.5,1.5c-1.8,0-3.3-0.8-4.4-2.4c-1.1-1.4-1.6-3.1-1.6-5.1c0-1.8,0.4-3.6,1.3-5.3   c0.9-1.9,2.1-3.2,3.6-3.9c0.8-0.4,1.3-0.8,1.7-1.2c0.2,0,0.4-0.1,0.6-0.1c0.1,0,0.4,0.1,1,0.3c1.5,0.6,2.7,1.5,3.6,2.9   c0.9,1.4,1.4,2.9,1.4,4.5C232.9,29.3,232.6,30.7,232.2,31.8z M228.6,24c-0.7,0-1.3-0.2-1.7-0.4c-1.5,0.1-2.7,0.9-3.6,2.3   c-0.7,1.3-1.1,2.8-1.1,4.5c0,1.3,0.3,2.4,1,3.3c0.7,1,1.5,1.4,2.5,1.4c1.1,0,2.2-0.8,3.2-2.5c1-1.5,1.4-3,1.4-4.4   C230.3,26.2,229.7,24.8,228.6,24z M252.2,31.6c-0.2,1.5-0.3,3.5-0.6,5.8c-0.1,0.4-0.3,0.7-0.6,0.7c-0.5,0-0.9-0.2-1.3-0.6   c-0.3-0.4-0.5-0.9-0.5-1.3c0-0.6,0.1-1.6,0.3-2.8l0.7-7.3c-4.1,3-7,6-8.6,9.1c-0.3,0.6-0.5,1.2-0.7,1.7c-0.3,0.6-0.5,1-0.7,1   c-0.9,0-1.4-0.5-1.8-1.6c-0.5-1.6-0.8-3.6-0.8-6.1c0-2.6,0.4-6.2,1.4-10.7c0.1-0.4,0.3-0.7,0.6-0.7c0.5,0,0.9,0.3,1.3,0.7   c0.3,0.5,0.5,1,0.5,1.5c-0.1,0.4-0.2,0.9-0.3,1.5c-0.7,3-1,6.3-1,9.8c3.4-4.5,6.9-7.8,10.5-9.9c0.5,0,1,0.3,1.3,0.6   c0.4,0.4,0.6,0.9,0.6,1.3C252.6,26.3,252.5,28.8,252.2,31.6z M271.8,27.8c-0.7,1.8-1,3.8-1,5.8c0,0.7,0,1.5,0.2,2.2   c0.3,1.3,0.4,2,0.4,2c0,0.8-0.5,1.3-1.4,1.3c-0.9,0-1.3-0.7-1.5-2.1c-0.1-0.7-0.2-1.9-0.4-3.5c-2.4,2.9-4.7,4.3-6.9,4.3   c-1.2,0-2.2-0.5-3-1.6c-0.8-1-1.2-2.1-1.2-3.3c0-2,0.9-4.1,2.7-6.3c0.3-0.4,1-1.1,1.9-2c2.9-2.6,5.3-3.9,7.2-3.9   c0.4,0,0.9,0.2,1.4,0.6c0.4,0.4,0.7,0.8,0.7,1.3c0,0.1,0,0.3-0.1,0.6c0.3,0.9,0.5,1.9,0.5,3c0.3,0.4,0.5,0.8,0.5,1.1   C272,27.2,271.9,27.4,271.8,27.8z M267.8,23.5c-0.6,0-1.5,0.5-2.7,1.4c-1.1,0.8-2,1.6-2.7,2.5c-1.8,2-2.7,3.8-2.7,5.2   c0,1.5,0.6,2.3,1.8,2.3c1.6,0,3.3-1,4.9-3.1s2.5-4,2.5-5.9C268.9,24.3,268.5,23.5,267.8,23.5z M281.2,25.9c-1,4.1-1.5,7.2-1.5,9.5   c0.6,0.6,0.9,1.3,0.9,2c0,0.6-0.3,0.9-0.8,0.9c-0.7,0-1.3-0.6-1.9-1.6c-0.4-0.9-0.7-2-0.7-3.3c0-1.1,0.6-4.6,1.8-10.6   c-0.1-0.5-0.1-0.9-0.1-1c0-0.4,0.2-0.7,0.7-1c1.6,0.1,2.4,0.9,2.4,2.3C281.8,23.8,281.6,24.7,281.2,25.9z M282.9,9.2   c-1.7-0.3-2.5-1.2-2.5-2.7c0-0.3,0-0.5,0-0.8c0.1-1,0.7-1.6,1.8-2c1.4,0.2,2.2,1.1,2.2,3C284.4,8.2,283.9,9.1,282.9,9.2z    M301.8,23.2c-0.8,0.3-1.3,0.5-1.8,0.5c-0.1,0-0.3-0.1-0.9-0.3c-3.7,1.7-6,5.3-6.7,10.9c-0.4,2.9-0.9,4.4-1.4,4.4   c-0.5,0-0.9-0.3-1.2-0.8c-0.3-0.5-0.5-1-0.5-1.6c0.1-0.4,0.3-1.2,0.5-2.3c0.2-1.3,0.3-2.5,0.3-3.6c0-1.3-0.2-2.5-0.4-3.8   c-0.5-0.5-0.8-1.1-0.9-1.7c-0.2-1.2-0.3-2.1-0.3-2.8c0-0.3,0.1-0.6,0.3-0.9c0.2-0.3,0.3-0.5,0.6-0.5c1,0,1.6,0.8,2,2.4   c0.3,1.6,0.6,2.9,0.8,3.7c1-2,2.4-3.6,4.1-4.9c1.6-1.3,3.3-2,5.1-2c0.4,0,0.9,0.2,1.3,0.7c0.3,0.4,0.5,0.9,0.6,1.4   C303.2,22.4,302.7,22.8,301.8,23.2z M317.4,38.5c-3.4,0-5.8-1.6-7.3-4.8c-0.3,0.1-0.8,0.1-1.2,0.1c-1.5,0-2.7-0.3-3.6-0.8   c-1.1-0.6-1.6-1.3-1.6-2c0-1,0.4-1.4,1.3-1.4c0.1,0,0.6,0.3,1.3,0.8c0.7,0.5,1.5,0.7,2.2,0.7c0.3,0,0.6,0,0.8,0   c-0.1-0.7-0.2-1.3-0.2-2c0-2.1,0.5-4.1,1.6-6.1c1.2-2.2,2.6-3.3,4.4-3.3c1.1,0,2.2,0.6,3.3,1.7c0.8,0.9,1.2,1.9,1.2,3   c0,1.7-0.7,3.4-2.2,5c-1.3,1.5-2.9,2.7-4.8,3.5c0.9,1.8,2.2,2.7,4.1,2.7c0.4,0,1,0,1.8-0.2c0.8-0.1,1.3-0.1,1.5-0.1   c0.3,0,0.6,0.2,0.9,0.5c0.3,0.3,0.4,0.7,0.4,1C321.3,37.9,320,38.5,317.4,38.5z M316.4,23.2c-0.5-0.4-1-0.6-1.4-0.6   c-0.9,0-1.6,0.7-2.2,2c-0.6,1.3-0.9,2.7-0.9,4.1c0,0.5,0,1.1,0.1,1.7c1.4-0.6,2.6-1.4,3.6-2.5c1-1,1.5-2.1,1.5-3.3   C317.1,24.1,316.8,23.6,316.4,23.2z M334.9,22.4c-0.3,0-0.7,0-1.2-0.1c-0.5,0-0.9-0.1-1.2-0.1c-1.5,0-2.2,0.7-2.2,1.9   c0,0.4,0.2,1.3,0.7,2.6c0.4,1,0.8,2.1,1.2,3.1c0.9,2.6,1.4,4.5,1.4,5.6c0,1.4-0.6,2.5-1.8,3.2c-1,0.6-2.4,0.9-4,0.9   c-2.7,0-4-0.5-4-1.5c0-1.1,0.3-1.6,1.1-1.6c0.2,0,0.6,0,1.4,0.1c0.7,0.1,1.3,0.2,1.7,0.2c2.1,0,3.1-0.7,3.1-2   c0-0.6-0.7-2.7-1.9-6.3c-0.3-0.8-0.6-1.6-1-2.5c-0.3-0.8-0.4-1.6-0.4-2.4c0-1.9,1-3.2,3-3.9c0.3-0.7,1-1,2.3-1   c0.5,0,1.1,0.1,1.9,0.3c0.4,0.1,0.7,0.6,0.9,1.3c0,0.2,0.1,0.5,0.3,0.9C336,22,335.6,22.4,334.9,22.4z M348.1,35.5   c-1.5,4.6-3.5,8-6.1,10.1c-0.8,0.6-1.5,0.9-2.1,0.9c-0.3,0-0.6-0.1-0.8-0.3c-0.3-0.3-0.4-0.6-0.4-0.8c0-0.9,0.5-1.6,1.4-2.1   c1.3-0.7,2.5-2,3.6-3.9c2.5-4.3,3.8-9.5,3.8-15.6c0-3.6-0.6-7.3-1.7-11.1c-1.4-4.5-3.3-7.6-5.6-9.5c-1.1-0.8-1.6-1.5-1.6-2   c0-0.9,0.4-1.3,1.4-1.3c0.7,0,1.5,0.4,2.4,1.2c0.5,0.5,0.9,0.9,1.2,1.3c0.1,0.2,0.2,0.4,0.3,0.7c2,2.5,3.5,5.7,4.7,9.7   c1,3.6,1.6,7.2,1.6,10.7C350,27.6,349.3,31.6,348.1,35.5z"
       style="fill:#ffffff" /></g></svg>